<?xml version="1.0" encoding="UTF-8" standalone="no"?><!DOCTYPE svg PUBLIC "-//W3C//DTD SVG 1.1//EN" "http://www.w3.org/Graphics/SVG/1.1/DTD/svg11.dtd"><svg width="100%" height="100%" viewBox="0 0 598 598" version="1.1" xmlns="http://www.w3.org/2000/svg" xmlns:xlink="http://www.w3.org/1999/xlink" xml:space="preserve" xmlns:serif="http://www.serif.com/" style="fill-rule:evenodd;clip-rule:evenodd;stroke-linejoin:round;stroke-miterlimit:2;"><circle cx="300.472" cy="300.472" r="294.803" style="fill-opacity:0;"/><path d="M300.472,5.669c162.706,0 294.803,132.097 294.803,294.803c0,162.706 -132.097,294.803 -294.803,294.803c-162.706,0 -294.803,-132.097 -294.803,-294.803c0,-162.706 132.097,-294.803 294.803,-294.803Zm0,75c-121.313,0 -219.803,98.49 -219.803,219.803c0,121.313 98.49,219.803 219.803,219.803c121.313,0 219.803,-98.49 219.803,-219.803c0,-121.313 -98.49,-219.803 -219.803,-219.803Z"/><path d="M300.472,5.669c-69.224,56.459 -125.426,169.12 -125.426,294.803c0,125.684 56.201,238.344 125.426,294.803c-162.706,0 -294.803,-132.097 -294.803,-294.803c0,-162.706 132.097,-294.803 294.803,-294.803Z" style="fill:#130000;"/><path d="M325.754,36.667c-61.817,50.418 -110.707,151.571 -110.707,263.806c0,112.235 48.89,213.388 110.707,263.806l87.05,70.998l-112.331,0c-184.783,0 -334.803,-150.02 -334.803,-334.803c0,-184.783 150.02,-334.803 334.803,-334.803l112.331,0l-87.05,70.998Zm-25.281,-30.998c-162.706,0 -294.803,132.097 -294.803,294.803c0,162.706 132.097,294.803 294.803,294.803c-69.224,-56.459 -125.426,-169.12 -125.426,-294.803c0,-125.684 56.201,-238.344 125.426,-294.803Z" style="fill:#fff;"/></svg>