<?xml version="1.0" encoding="UTF-8" standalone="no"?><!DOCTYPE svg PUBLIC "-//W3C//DTD SVG 1.1//EN" "http://www.w3.org/Graphics/SVG/1.1/DTD/svg11.dtd"><svg width="100%" height="100%" viewBox="0 0 598 598" version="1.1" xmlns="http://www.w3.org/2000/svg" xmlns:xlink="http://www.w3.org/1999/xlink" xml:space="preserve" xmlns:serif="http://www.serif.com/" style="fill-rule:evenodd;clip-rule:evenodd;stroke-linejoin:round;stroke-miterlimit:2;"><circle cx="300.472" cy="300.472" r="294.803" style="fill:url(#_Linear1);"/><path d="M300.472,595.276c-162.706,0 -294.803,-132.097 -294.803,-294.803c0,-162.706 132.097,-294.803 294.803,-294.803c162.706,0 294.803,132.097 294.803,294.803c-0,162.706 -132.097,294.803 -294.803,294.803Zm0,-72c122.968,0 222.803,-99.835 222.803,-222.803c0,-122.968 -99.835,-222.803 -222.803,-222.803c-122.968,0 -222.803,99.835 -222.803,222.803c0,122.968 99.835,222.803 222.803,222.803Z"/><defs><linearGradient id="_Linear1" x1="0" y1="0" x2="1" y2="0" gradientUnits="userSpaceOnUse" gradientTransform="matrix(-589.606299,-0,0,-589.606299,595.275591,300.472441)"><stop offset="0" style="stop-color:#007be7;stop-opacity:1"/><stop offset="0.43" style="stop-color:#007be7;stop-opacity:1"/><stop offset="0.49" style="stop-color:#007c8f;stop-opacity:1"/><stop offset="0.54" style="stop-color:#007d6c;stop-opacity:1"/><stop offset="1" style="stop-color:#007d6c;stop-opacity:1"/></linearGradient></defs></svg>