<?xml version="1.0" encoding="UTF-8" standalone="no"?><!DOCTYPE svg PUBLIC "-//W3C//DTD SVG 1.1//EN" "http://www.w3.org/Graphics/SVG/1.1/DTD/svg11.dtd"><svg width="100%" height="100%" viewBox="0 0 598 598" version="1.1" xmlns="http://www.w3.org/2000/svg" xmlns:xlink="http://www.w3.org/1999/xlink" xml:space="preserve" xmlns:serif="http://www.serif.com/" style="fill-rule:evenodd;clip-rule:evenodd;stroke-linejoin:round;stroke-miterlimit:2;"><path d="M72.152,327.002c0,0 108.625,74.758 134.137,118.946c15.645,27.098 6.347,61.799 -20.751,77.444c-27.098,15.645 -61.799,6.347 -77.444,-20.751c-25.512,-44.188 -35.942,-175.639 -35.942,-175.639Z"/><path d="M72.152,327.002c0,0 108.625,74.758 134.137,118.946c15.645,27.098 6.347,61.799 -20.751,77.444c-27.098,15.645 -61.799,6.347 -77.444,-20.751c-25.512,-44.188 -35.942,-175.639 -35.942,-175.639Z"/><path d="M72.152,71.884c0,0 108.625,74.758 134.137,118.946c15.645,27.098 6.347,61.799 -20.751,77.444c-27.098,15.645 -61.799,6.347 -77.444,-20.751c-25.512,-44.188 -35.942,-175.639 -35.942,-175.639Z"/><path d="M72.152,71.884c0,0 108.625,74.758 134.137,118.946c15.645,27.098 6.347,61.799 -20.751,77.444c-27.098,15.645 -61.799,6.347 -77.444,-20.751c-25.512,-44.188 -35.942,-175.639 -35.942,-175.639Z"/><path d="M242.231,328.288c0,0 108.625,74.758 134.137,118.946c15.645,27.098 6.347,61.799 -20.751,77.444c-27.098,15.645 -61.799,6.347 -77.444,-20.751c-25.512,-44.188 -35.942,-175.639 -35.942,-175.639Z"/><path d="M242.231,328.288c0,0 108.625,74.758 134.137,118.946c15.645,27.098 6.347,61.799 -20.751,77.444c-27.098,15.645 -61.799,6.347 -77.444,-20.751c-25.512,-44.188 -35.942,-175.639 -35.942,-175.639Z"/><path d="M242.231,73.17c0,0 108.625,74.758 134.137,118.946c15.645,27.098 6.347,61.799 -20.751,77.444c-27.098,15.645 -61.799,6.347 -77.444,-20.751c-25.512,-44.188 -35.942,-175.639 -35.942,-175.639Z"/><path d="M242.231,73.17c0,0 108.625,74.758 134.137,118.946c15.645,27.098 6.347,61.799 -20.751,77.444c-27.098,15.645 -61.799,6.347 -77.444,-20.751c-25.512,-44.188 -35.942,-175.639 -35.942,-175.639Z"/><path d="M412.31,329.574c0,0 108.625,74.758 134.137,118.946c15.645,27.098 6.347,61.799 -20.751,77.444c-27.098,15.645 -61.799,6.347 -77.444,-20.751c-25.512,-44.188 -35.942,-175.639 -35.942,-175.639Z"/><path d="M412.31,329.574c0,0 108.625,74.758 134.137,118.946c15.645,27.098 6.347,61.799 -20.751,77.444c-27.098,15.645 -61.799,6.347 -77.444,-20.751c-25.512,-44.188 -35.942,-175.639 -35.942,-175.639Z"/><path d="M412.31,74.456c0,0 108.625,74.758 134.137,118.946c15.645,27.098 6.347,61.799 -20.751,77.444c-27.098,15.645 -61.799,6.347 -77.444,-20.751c-25.512,-44.188 -35.942,-175.639 -35.942,-175.639Z"/><path d="M412.31,74.456c0,0 108.625,74.758 134.137,118.946c15.645,27.098 6.347,61.799 -20.751,77.444c-27.098,15.645 -61.799,6.347 -77.444,-20.751c-25.512,-44.188 -35.942,-175.639 -35.942,-175.639Z"/></svg>